# xmcd
# 
# Track frame offsets:
#     150
#     19020
#     38441
#     58685
#     80095
#     97286
#     121549
#     139474
#     164490
#     184871
#     196797
#     221734
# 
# Disc length: 3146
# 
# Revision: 5
# Processed by: cddbd v1.5.2PL0 Copyright (c) Steve Scherf et al.
# Submitted via: fre:ac v1.0.17
# 
DISCID=a80c480c
DTITLE=Various Artist - Crucial Slide Guitar Blues
DYEAR=2004
DGENRE=Blues -  Blues Slide Guitar
TTITLE0=Johnny Winter - It's my life, baby
TTITLE1=Lil' Ed and the Blues Imperials - Never miss tour water
TTITLE2=A.C. Reed and Bonnie Raitt - She's Fine
TTITLE3=Luther Allison - Give me back my wig
TTITLE4=Elvin Bishop - I'm Gone
TTITLE5=Steady 'Rollin' Bob Margolin - The same thing
TTITLE6=Sonny Landreth - Talor's Rock
TTITLE7=The Kinsey Report - When the church burned down
TTITLE8=Michael Hills Blues Mob - She's gone
TTITLE9=Corey Harris -  Jack O'Diamonds
TTITLE10=Hound dog Taylor and The Houserockers - The sun is shining
TTITLE11=Dave Hole - Out of here
EXTD=
EXTT0=
EXTT1=
EXTT2=
EXTT3=
EXTT4=
EXTT5=
EXTT6=
EXTT7=
EXTT8=
EXTT9=
EXTT10=
EXTT11=
PLAYORDER=
